# xmcd
#
# Track frame offsets: 
#        150
#        16139
#        36805
#        58658
#        79415
#        96590
#        118339
#        136333
#        157198
#        178066
#        198521
#        217040
#        235673
#        255197
#        274018
#
# Disc length: 3952 seconds
#
# Revision: 0
# Processed by: cddbd v1.4PL0 Copyright (c) Steve Scherf et al.
# Submitted via: ExactAudioCopy v0.95a3
#
DISCID=d90f6e0f
DTITLE=游鸿明 - CD2
DYEAR=1900
DGENRE=
TTITLE0=谈心
TTITLE1=爱我的人和我爱的人
TTITLE2=无所谓
TTITLE3=期待拥抱
TTITLE4=故事书
TTITLE5=坏人
TTITLE6=寂寞
TTITLE7=自尊
TTITLE8=去爱
TTITLE9=你是我最爱的人
TTITLE10=冷却爱情
TTITLE11=情有多少心痛有多少
TTITLE12=前世的诺言
TTITLE13=覆水难收
TTITLE14=梦里人间
EXTD=
EXTT0=
EXTT1=
EXTT2=
EXTT3=
EXTT4=
EXTT5=
EXTT6=
EXTT7=
EXTT8=
EXTT9=
EXTT10=
EXTT11=
EXTT12=
EXTT13=
EXTT14=
PLAYORDER=
